{
	"patcher" : 	{
		"fileversion" : 1,
		"appversion" : 		{
			"major" : 8,
			"minor" : 5,
			"revision" : 1,
			"architecture" : "x64",
			"modernui" : 1
		}
,
		"classnamespace" : "box",
		"rect" : [ 477.0, 115.0, 1027.0, 1283.0 ],
		"bglocked" : 0,
		"openinpresentation" : 0,
		"default_fontsize" : 12.0,
		"default_fontface" : 0,
		"default_fontname" : "Arial",
		"gridonopen" : 1,
		"gridsize" : [ 15.0, 15.0 ],
		"gridsnaponopen" : 1,
		"objectsnaponopen" : 1,
		"statusbarvisible" : 2,
		"toolbarvisible" : 1,
		"lefttoolbarpinned" : 0,
		"toptoolbarpinned" : 0,
		"righttoolbarpinned" : 0,
		"bottomtoolbarpinned" : 0,
		"toolbars_unpinned_last_save" : 0,
		"tallnewobj" : 0,
		"boxanimatetime" : 200,
		"enablehscroll" : 1,
		"enablevscroll" : 1,
		"devicewidth" : 0.0,
		"description" : "",
		"digest" : "",
		"tags" : "",
		"style" : "",
		"subpatcher_template" : "",
		"assistshowspatchername" : 0,
		"boxes" : [ 			{
				"box" : 				{
					"id" : "obj-138",
					"maxclass" : "button",
					"numinlets" : 1,
					"numoutlets" : 1,
					"outlettype" : [ "bang" ],
					"parameter_enable" : 0,
					"patching_rect" : [ 405.0, 840.0, 24.0, 24.0 ]
				}

			}
, 			{
				"box" : 				{
					"id" : "obj-135",
					"maxclass" : "newobj",
					"numinlets" : 0,
					"numoutlets" : 1,
					"outlettype" : [ "" ],
					"patching_rect" : [ 525.059319078922272, 255.0, 35.0, 22.0 ],
					"text" : "r lin2"
				}

			}
, 			{
				"box" : 				{
					"id" : "obj-130",
					"maxclass" : "button",
					"numinlets" : 1,
					"numoutlets" : 1,
					"outlettype" : [ "bang" ],
					"parameter_enable" : 0,
					"patching_rect" : [ 420.0, 990.0, 24.0, 24.0 ]
				}

			}
, 			{
				"box" : 				{
					"id" : "obj-131",
					"maxclass" : "message",
					"numinlets" : 2,
					"numoutlets" : 1,
					"outlettype" : [ "" ],
					"patching_rect" : [ 420.0, 960.0, 35.0, 22.0 ],
					"text" : "clear"
				}

			}
, 			{
				"box" : 				{
					"id" : "obj-132",
					"maxclass" : "newobj",
					"numinlets" : 1,
					"numoutlets" : 0,
					"patching_rect" : [ 524.112992872794507, 1110.0, 37.0, 22.0 ],
					"text" : "s lin2"
				}

			}
, 			{
				"box" : 				{
					"id" : "obj-133",
					"maxclass" : "newobj",
					"numinlets" : 3,
					"numoutlets" : 2,
					"outlettype" : [ "", "bang" ],
					"patching_rect" : [ 524.112992872794507, 1080.0, 40.0, 22.0 ],
					"text" : "line"
				}

			}
, 			{
				"box" : 				{
					"domain" : 60000.0,
					"id" : "obj-134",
					"maxclass" : "function",
					"numinlets" : 1,
					"numoutlets" : 4,
					"outlettype" : [ "float", "", "", "bang" ],
					"parameter_enable" : 0,
					"patching_rect" : [ 463.779659539461136, 960.0, 200.0, 100.0 ],
					"range" : [ 0.0, 2.5 ]
				}

			}
, 			{
				"box" : 				{
					"id" : "obj-129",
					"maxclass" : "newobj",
					"numinlets" : 2,
					"numoutlets" : 3,
					"outlettype" : [ "signal", "signal", "" ],
					"patching_rect" : [ 180.0, 1035.0, 183.0, 22.0 ],
					"text" : "hirt.convolutionreverb~ CoolVerb",
					"varname" : "hirt.convolutionreverb~"
				}

			}
, 			{
				"box" : 				{
					"id" : "obj-128",
					"maxclass" : "button",
					"numinlets" : 1,
					"numoutlets" : 1,
					"outlettype" : [ "bang" ],
					"parameter_enable" : 0,
					"patching_rect" : [ 339.0, 810.0, 24.0, 24.0 ]
				}

			}
, 			{
				"box" : 				{
					"id" : "obj-126",
					"maxclass" : "message",
					"numinlets" : 2,
					"numoutlets" : 1,
					"outlettype" : [ "" ],
					"patching_rect" : [ 420.0, 780.0, 35.0, 22.0 ],
					"text" : "clear"
				}

			}
, 			{
				"box" : 				{
					"id" : "obj-124",
					"maxclass" : "newobj",
					"numinlets" : 0,
					"numoutlets" : 1,
					"outlettype" : [ "" ],
					"patching_rect" : [ 255.0, 255.0, 35.0, 22.0 ],
					"text" : "r lin1"
				}

			}
, 			{
				"box" : 				{
					"id" : "obj-123",
					"maxclass" : "newobj",
					"numinlets" : 1,
					"numoutlets" : 0,
					"patching_rect" : [ 524.112992872794507, 930.0, 37.0, 22.0 ],
					"text" : "s lin1"
				}

			}
, 			{
				"box" : 				{
					"id" : "obj-122",
					"maxclass" : "newobj",
					"numinlets" : 3,
					"numoutlets" : 2,
					"outlettype" : [ "", "bang" ],
					"patching_rect" : [ 524.112992872794507, 900.0, 40.0, 22.0 ],
					"text" : "line"
				}

			}
, 			{
				"box" : 				{
					"domain" : 60000.0,
					"id" : "obj-121",
					"maxclass" : "function",
					"numinlets" : 1,
					"numoutlets" : 4,
					"outlettype" : [ "float", "", "", "bang" ],
					"parameter_enable" : 0,
					"patching_rect" : [ 463.779659539461136, 780.0, 200.0, 100.0 ],
					"range" : [ 0.0, 500.0 ]
				}

			}
, 			{
				"box" : 				{
					"id" : "obj-120",
					"maxclass" : "message",
					"numinlets" : 2,
					"numoutlets" : 1,
					"outlettype" : [ "" ],
					"patching_rect" : [ 180.0, 255.0, 29.5, 22.0 ],
					"text" : "0"
				}

			}
, 			{
				"box" : 				{
					"fontname" : "Arial",
					"fontsize" : 13.0,
					"id" : "obj-14",
					"maxclass" : "newobj",
					"numinlets" : 2,
					"numoutlets" : 1,
					"outlettype" : [ "float" ],
					"patching_rect" : [ 475.279659539461136, 640.0, 45.0, 23.0 ],
					"text" : "* 0.01"
				}

			}
, 			{
				"box" : 				{
					"fontname" : "Arial",
					"fontsize" : 13.0,
					"format" : 6,
					"id" : "obj-11",
					"maxclass" : "flonum",
					"numinlets" : 1,
					"numoutlets" : 2,
					"outlettype" : [ "", "bang" ],
					"parameter_enable" : 0,
					"patching_rect" : [ 645.279659539461136, 614.0, 54.0, 23.0 ],
					"triscale" : 0.9
				}

			}
, 			{
				"box" : 				{
					"fontname" : "Arial",
					"fontsize" : 13.0,
					"format" : 6,
					"id" : "obj-116",
					"maxclass" : "flonum",
					"maximum" : 0.9999,
					"minimum" : -0.9999,
					"numinlets" : 1,
					"numoutlets" : 2,
					"outlettype" : [ "", "bang" ],
					"parameter_enable" : 0,
					"patching_rect" : [ 730.279659539461136, 614.0, 54.0, 23.0 ],
					"triscale" : 0.9
				}

			}
, 			{
				"box" : 				{
					"fontname" : "Arial",
					"fontsize" : 13.0,
					"id" : "obj-117",
					"maxclass" : "message",
					"numinlets" : 2,
					"numoutlets" : 1,
					"outlettype" : [ "" ],
					"patching_rect" : [ 730.279659539461136, 646.0, 44.0, 23.0 ],
					"text" : "$1 20"
				}

			}
, 			{
				"box" : 				{
					"fontname" : "Arial",
					"fontsize" : 13.0,
					"id" : "obj-4",
					"maxclass" : "newobj",
					"numinlets" : 2,
					"numoutlets" : 2,
					"outlettype" : [ "signal", "bang" ],
					"patching_rect" : [ 730.279659539461136, 675.0, 40.0, 23.0 ],
					"text" : "line~"
				}

			}
, 			{
				"box" : 				{
					"fontname" : "Arial",
					"fontsize" : 13.0,
					"format" : 6,
					"id" : "obj-17",
					"maxclass" : "flonum",
					"numinlets" : 1,
					"numoutlets" : 2,
					"outlettype" : [ "", "bang" ],
					"parameter_enable" : 0,
					"patching_rect" : [ 560.279659539461136, 614.0, 54.0, 23.0 ],
					"triscale" : 0.9
				}

			}
, 			{
				"box" : 				{
					"fontname" : "Arial",
					"fontsize" : 13.0,
					"format" : 6,
					"id" : "obj-21",
					"maxclass" : "flonum",
					"numinlets" : 1,
					"numoutlets" : 2,
					"outlettype" : [ "", "bang" ],
					"parameter_enable" : 0,
					"patching_rect" : [ 475.279659539461136, 614.0, 54.0, 23.0 ],
					"triscale" : 0.9
				}

			}
, 			{
				"box" : 				{
					"fontname" : "Arial",
					"fontsize" : 13.0,
					"id" : "obj-22",
					"maxclass" : "message",
					"numinlets" : 2,
					"numoutlets" : 1,
					"outlettype" : [ "" ],
					"patching_rect" : [ 475.279659539461136, 665.0, 44.0, 23.0 ],
					"text" : "$1 20"
				}

			}
, 			{
				"box" : 				{
					"fontname" : "Arial",
					"fontsize" : 13.0,
					"id" : "obj-5",
					"maxclass" : "newobj",
					"numinlets" : 2,
					"numoutlets" : 2,
					"outlettype" : [ "signal", "bang" ],
					"patching_rect" : [ 475.279659539461136, 690.0, 40.0, 23.0 ],
					"text" : "line~"
				}

			}
, 			{
				"box" : 				{
					"bubble" : 1,
					"bubbleside" : 2,
					"fontname" : "Arial",
					"fontsize" : 13.0,
					"id" : "obj-28",
					"maxclass" : "comment",
					"numinlets" : 1,
					"numoutlets" : 0,
					"patching_rect" : [ 463.779659539461136, 573.0, 78.0, 40.0 ],
					"text" : "delay in ms"
				}

			}
, 			{
				"box" : 				{
					"bubble" : 1,
					"bubbleside" : 2,
					"fontname" : "Arial",
					"fontsize" : 13.0,
					"id" : "obj-35",
					"maxclass" : "comment",
					"numinlets" : 1,
					"numoutlets" : 0,
					"patching_rect" : [ 569.279659539461136, 570.0, 36.0, 40.0 ],
					"text" : "gain"
				}

			}
, 			{
				"box" : 				{
					"bubble" : 1,
					"bubbleside" : 2,
					"fontname" : "Arial",
					"fontsize" : 13.0,
					"id" : "obj-37",
					"maxclass" : "comment",
					"numinlets" : 1,
					"numoutlets" : 0,
					"patching_rect" : [ 724.779659539461136, 570.0, 65.0, 40.0 ],
					"text" : "feedback"
				}

			}
, 			{
				"box" : 				{
					"bubble" : 1,
					"bubbleside" : 2,
					"fontname" : "Arial",
					"fontsize" : 13.0,
					"id" : "obj-39",
					"maxclass" : "comment",
					"numinlets" : 1,
					"numoutlets" : 0,
					"patching_rect" : [ 631.779659539461136, 570.0, 81.0, 40.0 ],
					"text" : "feedforward"
				}

			}
, 			{
				"box" : 				{
					"id" : "obj-115",
					"maxclass" : "newobj",
					"numinlets" : 5,
					"numoutlets" : 1,
					"outlettype" : [ "multichannelsignal" ],
					"patching_rect" : [ 420.0, 735.0, 329.279659539461136, 22.0 ],
					"text" : "mc.comb~"
				}

			}
, 			{
				"box" : 				{
					"id" : "obj-81",
					"maxclass" : "newobj",
					"numinlets" : 1,
					"numoutlets" : 2,
					"outlettype" : [ "bang", "float" ],
					"patching_rect" : [ 525.059319078922272, 345.0, 29.5, 22.0 ],
					"text" : "t b f"
				}

			}
, 			{
				"box" : 				{
					"format" : 6,
					"id" : "obj-82",
					"maxclass" : "flonum",
					"numinlets" : 1,
					"numoutlets" : 2,
					"outlettype" : [ "", "bang" ],
					"parameter_enable" : 0,
					"patching_rect" : [ 525.059319078922272, 315.0, 50.0, 22.0 ]
				}

			}
, 			{
				"box" : 				{
					"id" : "obj-83",
					"maxclass" : "newobj",
					"numinlets" : 2,
					"numoutlets" : 1,
					"outlettype" : [ "" ],
					"patching_rect" : [ 450.0, 390.0, 104.559319078922272, 22.0 ],
					"text" : "join"
				}

			}
, 			{
				"box" : 				{
					"id" : "obj-84",
					"maxclass" : "message",
					"numinlets" : 2,
					"numoutlets" : 1,
					"outlettype" : [ "" ],
					"patching_rect" : [ 449.898296535015106, 345.0, 64.0, 22.0 ],
					"text" : "deviate $1"
				}

			}
, 			{
				"box" : 				{
					"format" : 6,
					"id" : "obj-85",
					"maxclass" : "flonum",
					"numinlets" : 1,
					"numoutlets" : 2,
					"outlettype" : [ "", "bang" ],
					"parameter_enable" : 0,
					"patching_rect" : [ 449.898296535015106, 315.0, 50.0, 22.0 ]
				}

			}
, 			{
				"box" : 				{
					"format" : 6,
					"id" : "obj-80",
					"maxclass" : "flonum",
					"numinlets" : 1,
					"numoutlets" : 2,
					"outlettype" : [ "", "bang" ],
					"parameter_enable" : 0,
					"patching_rect" : [ 255.0, 315.0, 50.0, 22.0 ]
				}

			}
, 			{
				"box" : 				{
					"id" : "obj-77",
					"maxclass" : "newobj",
					"numinlets" : 1,
					"numoutlets" : 2,
					"outlettype" : [ "bang", "float" ],
					"patching_rect" : [ 255.059319078922272, 360.0, 29.5, 22.0 ],
					"text" : "t b f"
				}

			}
, 			{
				"box" : 				{
					"id" : "obj-78",
					"maxclass" : "newobj",
					"numinlets" : 2,
					"numoutlets" : 1,
					"outlettype" : [ "" ],
					"patching_rect" : [ 180.0, 405.0, 104.559319078922272, 22.0 ],
					"text" : "join"
				}

			}
, 			{
				"box" : 				{
					"id" : "obj-79",
					"maxclass" : "message",
					"numinlets" : 2,
					"numoutlets" : 1,
					"outlettype" : [ "" ],
					"patching_rect" : [ 179.898296535015106, 360.0, 64.0, 22.0 ],
					"text" : "deviate $1"
				}

			}
, 			{
				"box" : 				{
					"id" : "obj-76",
					"maxclass" : "newobj",
					"numinlets" : 1,
					"numoutlets" : 2,
					"outlettype" : [ "bang", "float" ],
					"patching_rect" : [ 390.5, 345.0, 29.5, 22.0 ],
					"text" : "t b f"
				}

			}
, 			{
				"box" : 				{
					"format" : 6,
					"id" : "obj-73",
					"maxclass" : "flonum",
					"numinlets" : 1,
					"numoutlets" : 2,
					"outlettype" : [ "", "bang" ],
					"parameter_enable" : 0,
					"patching_rect" : [ 390.5, 315.0, 50.0, 22.0 ]
				}

			}
, 			{
				"box" : 				{
					"id" : "obj-68",
					"maxclass" : "newobj",
					"numinlets" : 2,
					"numoutlets" : 1,
					"outlettype" : [ "" ],
					"patching_rect" : [ 315.440680921077728, 390.0, 104.559319078922272, 22.0 ],
					"text" : "join"
				}

			}
, 			{
				"box" : 				{
					"id" : "obj-64",
					"maxclass" : "message",
					"numinlets" : 2,
					"numoutlets" : 1,
					"outlettype" : [ "" ],
					"patching_rect" : [ 315.338977456092834, 345.0, 64.0, 22.0 ],
					"text" : "deviate $1"
				}

			}
, 			{
				"box" : 				{
					"id" : "obj-60",
					"maxclass" : "newobj",
					"numinlets" : 2,
					"numoutlets" : 1,
					"outlettype" : [ "multichannelsignal" ],
					"patching_rect" : [ 180.0, 645.0, 42.0, 22.0 ],
					"text" : "mc.+~"
				}

			}
, 			{
				"box" : 				{
					"id" : "obj-59",
					"maxclass" : "newobj",
					"numinlets" : 2,
					"numoutlets" : 1,
					"outlettype" : [ "multichannelsignal" ],
					"patching_rect" : [ 294.0, 600.0, 40.0, 22.0 ],
					"text" : "mc.*~"
				}

			}
, 			{
				"box" : 				{
					"id" : "obj-58",
					"maxclass" : "newobj",
					"numinlets" : 2,
					"numoutlets" : 1,
					"outlettype" : [ "multichannelsignal" ],
					"patching_rect" : [ 379.0, 555.0, 40.0, 22.0 ],
					"text" : "mc.*~"
				}

			}
, 			{
				"box" : 				{
					"id" : "obj-57",
					"maxclass" : "newobj",
					"numinlets" : 2,
					"numoutlets" : 1,
					"outlettype" : [ "multichannelsignal" ],
					"patching_rect" : [ 294.0, 555.0, 62.0, 22.0 ],
					"text" : "mc.cycle~"
				}

			}
, 			{
				"box" : 				{
					"id" : "obj-56",
					"maxclass" : "newobj",
					"numinlets" : 2,
					"numoutlets" : 1,
					"outlettype" : [ "multichannelsignal" ],
					"patching_rect" : [ 294.0, 510.0, 40.0, 22.0 ],
					"text" : "mc.*~"
				}

			}
, 			{
				"box" : 				{
					"id" : "obj-54",
					"maxclass" : "newobj",
					"numinlets" : 1,
					"numoutlets" : 1,
					"outlettype" : [ "multichannelsignal" ],
					"patching_rect" : [ 450.0, 450.0, 114.0, 22.0 ],
					"text" : "mc.sig~ @chans 10"
				}

			}
, 			{
				"box" : 				{
					"id" : "obj-52",
					"maxclass" : "newobj",
					"numinlets" : 1,
					"numoutlets" : 1,
					"outlettype" : [ "multichannelsignal" ],
					"patching_rect" : [ 315.440680921077728, 450.0, 114.0, 22.0 ],
					"text" : "mc.sig~ @chans 10"
				}

			}
, 			{
				"box" : 				{
					"format" : 6,
					"id" : "obj-53",
					"maxclass" : "flonum",
					"numinlets" : 1,
					"numoutlets" : 2,
					"outlettype" : [ "", "bang" ],
					"parameter_enable" : 0,
					"patching_rect" : [ 315.338977456092834, 315.0, 50.0, 22.0 ]
				}

			}
, 			{
				"box" : 				{
					"id" : "obj-51",
					"maxclass" : "newobj",
					"numinlets" : 1,
					"numoutlets" : 1,
					"outlettype" : [ "multichannelsignal" ],
					"patching_rect" : [ 180.0, 450.0, 114.0, 22.0 ],
					"text" : "mc.sig~ @chans 10"
				}

			}
, 			{
				"box" : 				{
					"format" : 6,
					"id" : "obj-50",
					"maxclass" : "flonum",
					"numinlets" : 1,
					"numoutlets" : 2,
					"outlettype" : [ "", "bang" ],
					"parameter_enable" : 0,
					"patching_rect" : [ 180.0, 315.0, 50.0, 22.0 ]
				}

			}
, 			{
				"box" : 				{
					"id" : "obj-48",
					"maxclass" : "newobj",
					"numinlets" : 2,
					"numoutlets" : 1,
					"outlettype" : [ "multichannelsignal" ],
					"patching_rect" : [ 180.0, 690.0, 79.0, 22.0 ],
					"text" : "mc.cycle~ 60"
				}

			}
, 			{
				"box" : 				{
					"id" : "obj-47",
					"maxclass" : "newobj",
					"numinlets" : 1,
					"numoutlets" : 2,
					"outlettype" : [ "signal", "signal" ],
					"patching_rect" : [ 180.0, 975.0, 74.0, 22.0 ],
					"text" : "mc.unpack~"
				}

			}
, 			{
				"box" : 				{
					"id" : "obj-45",
					"maxclass" : "newobj",
					"numinlets" : 2,
					"numoutlets" : 1,
					"outlettype" : [ "multichannelsignal" ],
					"patching_rect" : [ 180.0, 945.0, 164.0, 22.0 ],
					"text" : "mc.mixdown~ 2 @autogain 1"
				}

			}
, 			{
				"box" : 				{
					"id" : "obj-44",
					"maxclass" : "gain~",
					"multichannelvariant" : 1,
					"numinlets" : 1,
					"numoutlets" : 2,
					"outlettype" : [ "multichannelsignal", "" ],
					"parameter_enable" : 0,
					"patching_rect" : [ 180.0, 765.0, 106.5, 165.0 ]
				}

			}
, 			{
				"box" : 				{
					"id" : "obj-43",
					"maxclass" : "newobj",
					"numinlets" : 0,
					"numoutlets" : 2,
					"outlettype" : [ "", "" ],
					"patcher" : 					{
						"fileversion" : 1,
						"appversion" : 						{
							"major" : 8,
							"minor" : 5,
							"revision" : 1,
							"architecture" : "x64",
							"modernui" : 1
						}
,
						"classnamespace" : "box",
						"rect" : [ 0.0, 0.0, 640.0, 480.0 ],
						"bglocked" : 0,
						"openinpresentation" : 0,
						"default_fontsize" : 12.0,
						"default_fontface" : 0,
						"default_fontname" : "Arial",
						"gridonopen" : 1,
						"gridsize" : [ 15.0, 15.0 ],
						"gridsnaponopen" : 1,
						"objectsnaponopen" : 1,
						"statusbarvisible" : 2,
						"toolbarvisible" : 1,
						"lefttoolbarpinned" : 0,
						"toptoolbarpinned" : 0,
						"righttoolbarpinned" : 0,
						"bottomtoolbarpinned" : 0,
						"toolbars_unpinned_last_save" : 0,
						"tallnewobj" : 0,
						"boxanimatetime" : 200,
						"enablehscroll" : 1,
						"enablevscroll" : 1,
						"devicewidth" : 0.0,
						"description" : "",
						"digest" : "",
						"tags" : "",
						"style" : "",
						"subpatcher_template" : "",
						"assistshowspatchername" : 0,
						"boxes" : [ 							{
								"box" : 								{
									"id" : "obj-40",
									"maxclass" : "newobj",
									"numinlets" : 1,
									"numoutlets" : 2,
									"outlettype" : [ "bang", "bang" ],
									"patching_rect" : [ 229.200000000000045, 176.0, 32.0, 22.0 ],
									"text" : "t b b"
								}

							}
, 							{
								"box" : 								{
									"id" : "obj-20",
									"maxclass" : "gswitch2",
									"numinlets" : 2,
									"numoutlets" : 2,
									"outlettype" : [ "", "" ],
									"parameter_enable" : 0,
									"patching_rect" : [ 229.200000000000045, 212.62707644701004, 128.830504298210144, 50.6440669298172 ]
								}

							}
, 							{
								"box" : 								{
									"id" : "obj-15",
									"maxclass" : "message",
									"numinlets" : 2,
									"numoutlets" : 1,
									"outlettype" : [ "" ],
									"patching_rect" : [ 229.200000000000045, 278.932203114032745, 31.0, 22.0 ],
									"text" : "stop"
								}

							}
, 							{
								"box" : 								{
									"id" : "obj-13",
									"maxclass" : "message",
									"numinlets" : 2,
									"numoutlets" : 1,
									"outlettype" : [ "" ],
									"patching_rect" : [ 339.03050429821019, 278.932203114032745, 72.0, 22.0 ],
									"text" : "startwindow"
								}

							}
, 							{
								"box" : 								{
									"id" : "obj-11",
									"maxclass" : "message",
									"numinlets" : 2,
									"numoutlets" : 1,
									"outlettype" : [ "" ],
									"patching_rect" : [ 184.399999999999977, 176.0, 29.5, 22.0 ],
									"text" : "0"
								}

							}
, 							{
								"box" : 								{
									"id" : "obj-12",
									"maxclass" : "message",
									"numinlets" : 2,
									"numoutlets" : 1,
									"outlettype" : [ "" ],
									"patching_rect" : [ 140.25, 176.0, 29.5, 22.0 ],
									"text" : "-6"
								}

							}
, 							{
								"box" : 								{
									"id" : "obj-10",
									"maxclass" : "message",
									"numinlets" : 2,
									"numoutlets" : 1,
									"outlettype" : [ "" ],
									"patching_rect" : [ 94.799999999999955, 176.0, 29.5, 22.0 ],
									"text" : "-3"
								}

							}
, 							{
								"box" : 								{
									"id" : "obj-9",
									"maxclass" : "message",
									"numinlets" : 2,
									"numoutlets" : 1,
									"outlettype" : [ "" ],
									"patching_rect" : [ 50.0, 176.0, 29.5, 22.0 ],
									"text" : "-1"
								}

							}
, 							{
								"box" : 								{
									"id" : "obj-7",
									"maxclass" : "newobj",
									"numinlets" : 6,
									"numoutlets" : 6,
									"outlettype" : [ "bang", "bang", "bang", "bang", "bang", "" ],
									"patching_rect" : [ 50.0, 131.0, 243.0, 22.0 ],
									"text" : "sel 49 50 51 48 32"
								}

							}
, 							{
								"box" : 								{
									"id" : "obj-4",
									"maxclass" : "newobj",
									"numinlets" : 0,
									"numoutlets" : 4,
									"outlettype" : [ "int", "int", "int", "int" ],
									"patching_rect" : [ 50.0, 100.0, 50.5, 22.0 ],
									"text" : "key"
								}

							}
, 							{
								"box" : 								{
									"comment" : "",
									"id" : "obj-41",
									"index" : 1,
									"maxclass" : "outlet",
									"numinlets" : 1,
									"numoutlets" : 0,
									"patching_rect" : [ 111.362503000000004, 360.932250999999951, 30.0, 30.0 ]
								}

							}
, 							{
								"box" : 								{
									"comment" : "",
									"id" : "obj-42",
									"index" : 2,
									"maxclass" : "outlet",
									"numinlets" : 1,
									"numoutlets" : 0,
									"patching_rect" : [ 278.115265000000022, 360.932250999999951, 30.0, 30.0 ]
								}

							}
 ],
						"lines" : [ 							{
								"patchline" : 								{
									"destination" : [ "obj-41", 0 ],
									"source" : [ "obj-10", 0 ]
								}

							}
, 							{
								"patchline" : 								{
									"destination" : [ "obj-41", 0 ],
									"source" : [ "obj-11", 0 ]
								}

							}
, 							{
								"patchline" : 								{
									"destination" : [ "obj-41", 0 ],
									"source" : [ "obj-12", 0 ]
								}

							}
, 							{
								"patchline" : 								{
									"destination" : [ "obj-42", 0 ],
									"source" : [ "obj-13", 0 ]
								}

							}
, 							{
								"patchline" : 								{
									"destination" : [ "obj-42", 0 ],
									"source" : [ "obj-15", 0 ]
								}

							}
, 							{
								"patchline" : 								{
									"destination" : [ "obj-13", 0 ],
									"source" : [ "obj-20", 1 ]
								}

							}
, 							{
								"patchline" : 								{
									"destination" : [ "obj-15", 0 ],
									"source" : [ "obj-20", 0 ]
								}

							}
, 							{
								"patchline" : 								{
									"destination" : [ "obj-7", 0 ],
									"source" : [ "obj-4", 0 ]
								}

							}
, 							{
								"patchline" : 								{
									"destination" : [ "obj-20", 0 ],
									"source" : [ "obj-40", 1 ]
								}

							}
, 							{
								"patchline" : 								{
									"destination" : [ "obj-20", 1 ],
									"source" : [ "obj-40", 0 ]
								}

							}
, 							{
								"patchline" : 								{
									"destination" : [ "obj-10", 0 ],
									"source" : [ "obj-7", 1 ]
								}

							}
, 							{
								"patchline" : 								{
									"destination" : [ "obj-11", 0 ],
									"source" : [ "obj-7", 3 ]
								}

							}
, 							{
								"patchline" : 								{
									"destination" : [ "obj-12", 0 ],
									"source" : [ "obj-7", 2 ]
								}

							}
, 							{
								"patchline" : 								{
									"destination" : [ "obj-40", 0 ],
									"source" : [ "obj-7", 4 ]
								}

							}
, 							{
								"patchline" : 								{
									"destination" : [ "obj-9", 0 ],
									"source" : [ "obj-7", 0 ]
								}

							}
, 							{
								"patchline" : 								{
									"destination" : [ "obj-41", 0 ],
									"source" : [ "obj-9", 0 ]
								}

							}
 ]
					}
,
					"patching_rect" : [ 27.881373465061188, 1187.0, 114.0, 22.0 ],
					"saved_object_attributes" : 					{
						"description" : "",
						"digest" : "",
						"globalpatchername" : "",
						"tags" : ""
					}
,
					"text" : "p MainAudioControl"
				}

			}
, 			{
				"box" : 				{
					"id" : "obj-3",
					"lastchannelcount" : 0,
					"maxclass" : "live.gain~",
					"numinlets" : 2,
					"numoutlets" : 5,
					"orientation" : 1,
					"outlettype" : [ "signal", "signal", "", "float", "list" ],
					"parameter_enable" : 1,
					"patching_rect" : [ 180.0, 1110.0, 136.0, 47.0 ],
					"saved_attribute_attributes" : 					{
						"valueof" : 						{
							"parameter_longname" : "live.gain~",
							"parameter_mmax" : 6.0,
							"parameter_mmin" : -70.0,
							"parameter_shortname" : "live.gain~",
							"parameter_type" : 0,
							"parameter_unitstyle" : 4
						}

					}
,
					"varname" : "live.gain~"
				}

			}
, 			{
				"box" : 				{
					"id" : "obj-2",
					"maxclass" : "newobj",
					"numinlets" : 2,
					"numoutlets" : 2,
					"outlettype" : [ "signal", "signal" ],
					"patching_rect" : [ 180.0, 1187.0, 388.0, 22.0 ],
					"text" : "limi~ 2 512 @dcblock 1 @lookahead 10 @release 100 @threshold -0.3"
				}

			}
, 			{
				"box" : 				{
					"bgcolor" : [ 1.0, 0.0, 0.0, 0.99 ],
					"color" : [ 1.0, 1.0, 1.0, 1.0 ],
					"elementcolor" : [ 0.137254901960784, 0.137254901960784, 0.137254901960784, 1.0 ],
					"id" : "obj-1",
					"maxclass" : "ezdac~",
					"numinlets" : 2,
					"numoutlets" : 0,
					"patching_rect" : [ 180.0, 1240.0, 109.0, 109.0 ]
				}

			}
 ],
		"lines" : [ 			{
				"patchline" : 				{
					"destination" : [ "obj-115", 3 ],
					"source" : [ "obj-11", 0 ]
				}

			}
, 			{
				"patchline" : 				{
					"destination" : [ "obj-44", 0 ],
					"source" : [ "obj-115", 0 ]
				}

			}
, 			{
				"patchline" : 				{
					"destination" : [ "obj-117", 0 ],
					"source" : [ "obj-116", 0 ]
				}

			}
, 			{
				"patchline" : 				{
					"destination" : [ "obj-4", 0 ],
					"source" : [ "obj-117", 0 ]
				}

			}
, 			{
				"patchline" : 				{
					"destination" : [ "obj-50", 0 ],
					"order" : 5,
					"source" : [ "obj-120", 0 ]
				}

			}
, 			{
				"patchline" : 				{
					"destination" : [ "obj-53", 0 ],
					"order" : 3,
					"source" : [ "obj-120", 0 ]
				}

			}
, 			{
				"patchline" : 				{
					"destination" : [ "obj-73", 0 ],
					"order" : 2,
					"source" : [ "obj-120", 0 ]
				}

			}
, 			{
				"patchline" : 				{
					"destination" : [ "obj-80", 0 ],
					"order" : 4,
					"source" : [ "obj-120", 0 ]
				}

			}
, 			{
				"patchline" : 				{
					"destination" : [ "obj-82", 0 ],
					"order" : 0,
					"source" : [ "obj-120", 0 ]
				}

			}
, 			{
				"patchline" : 				{
					"destination" : [ "obj-85", 0 ],
					"order" : 1,
					"source" : [ "obj-120", 0 ]
				}

			}
, 			{
				"patchline" : 				{
					"destination" : [ "obj-122", 0 ],
					"source" : [ "obj-121", 1 ]
				}

			}
, 			{
				"patchline" : 				{
					"destination" : [ "obj-123", 0 ],
					"source" : [ "obj-122", 0 ]
				}

			}
, 			{
				"patchline" : 				{
					"destination" : [ "obj-80", 0 ],
					"source" : [ "obj-124", 0 ]
				}

			}
, 			{
				"patchline" : 				{
					"destination" : [ "obj-121", 0 ],
					"source" : [ "obj-126", 0 ]
				}

			}
, 			{
				"patchline" : 				{
					"destination" : [ "obj-121", 0 ],
					"order" : 1,
					"source" : [ "obj-128", 0 ]
				}

			}
, 			{
				"patchline" : 				{
					"destination" : [ "obj-134", 0 ],
					"order" : 0,
					"source" : [ "obj-128", 0 ]
				}

			}
, 			{
				"patchline" : 				{
					"destination" : [ "obj-3", 1 ],
					"source" : [ "obj-129", 1 ]
				}

			}
, 			{
				"patchline" : 				{
					"destination" : [ "obj-3", 0 ],
					"source" : [ "obj-129", 0 ]
				}

			}
, 			{
				"patchline" : 				{
					"destination" : [ "obj-134", 0 ],
					"source" : [ "obj-130", 0 ]
				}

			}
, 			{
				"patchline" : 				{
					"destination" : [ "obj-134", 0 ],
					"source" : [ "obj-131", 0 ]
				}

			}
, 			{
				"patchline" : 				{
					"destination" : [ "obj-132", 0 ],
					"source" : [ "obj-133", 0 ]
				}

			}
, 			{
				"patchline" : 				{
					"destination" : [ "obj-133", 0 ],
					"source" : [ "obj-134", 1 ]
				}

			}
, 			{
				"patchline" : 				{
					"destination" : [ "obj-82", 0 ],
					"source" : [ "obj-135", 0 ]
				}

			}
, 			{
				"patchline" : 				{
					"destination" : [ "obj-121", 0 ],
					"source" : [ "obj-138", 0 ]
				}

			}
, 			{
				"patchline" : 				{
					"destination" : [ "obj-22", 0 ],
					"source" : [ "obj-14", 0 ]
				}

			}
, 			{
				"patchline" : 				{
					"destination" : [ "obj-115", 2 ],
					"source" : [ "obj-17", 0 ]
				}

			}
, 			{
				"patchline" : 				{
					"destination" : [ "obj-1", 1 ],
					"midpoints" : [ 558.5, 1225.0, 279.5, 1225.0 ],
					"source" : [ "obj-2", 1 ]
				}

			}
, 			{
				"patchline" : 				{
					"destination" : [ "obj-1", 0 ],
					"source" : [ "obj-2", 0 ]
				}

			}
, 			{
				"patchline" : 				{
					"destination" : [ "obj-14", 0 ],
					"source" : [ "obj-21", 0 ]
				}

			}
, 			{
				"patchline" : 				{
					"destination" : [ "obj-5", 0 ],
					"source" : [ "obj-22", 0 ]
				}

			}
, 			{
				"patchline" : 				{
					"destination" : [ "obj-2", 1 ],
					"midpoints" : [ 218.75, 1174.0, 558.5, 1174.0 ],
					"source" : [ "obj-3", 1 ]
				}

			}
, 			{
				"patchline" : 				{
					"destination" : [ "obj-2", 0 ],
					"source" : [ "obj-3", 0 ]
				}

			}
, 			{
				"patchline" : 				{
					"destination" : [ "obj-115", 4 ],
					"source" : [ "obj-4", 0 ]
				}

			}
, 			{
				"patchline" : 				{
					"destination" : [ "obj-1", 0 ],
					"midpoints" : [ 132.381373465061188, 1219.067796885967255, 189.5, 1219.067796885967255 ],
					"source" : [ "obj-43", 1 ]
				}

			}
, 			{
				"patchline" : 				{
					"destination" : [ "obj-3", 0 ],
					"midpoints" : [ 37.381373465061188, 1219.0, 165.0, 1219.0, 165.0, 1105.0, 189.5, 1105.0 ],
					"source" : [ "obj-43", 0 ]
				}

			}
, 			{
				"patchline" : 				{
					"destination" : [ "obj-45", 0 ],
					"source" : [ "obj-44", 0 ]
				}

			}
, 			{
				"patchline" : 				{
					"destination" : [ "obj-47", 0 ],
					"source" : [ "obj-45", 0 ]
				}

			}
, 			{
				"patchline" : 				{
					"destination" : [ "obj-129", 1 ],
					"source" : [ "obj-47", 1 ]
				}

			}
, 			{
				"patchline" : 				{
					"destination" : [ "obj-129", 0 ],
					"source" : [ "obj-47", 0 ]
				}

			}
, 			{
				"patchline" : 				{
					"destination" : [ "obj-115", 0 ],
					"source" : [ "obj-48", 0 ]
				}

			}
, 			{
				"patchline" : 				{
					"destination" : [ "obj-115", 1 ],
					"source" : [ "obj-5", 0 ]
				}

			}
, 			{
				"patchline" : 				{
					"destination" : [ "obj-79", 0 ],
					"source" : [ "obj-50", 0 ]
				}

			}
, 			{
				"patchline" : 				{
					"destination" : [ "obj-56", 0 ],
					"order" : 0,
					"source" : [ "obj-51", 0 ]
				}

			}
, 			{
				"patchline" : 				{
					"destination" : [ "obj-60", 0 ],
					"order" : 1,
					"source" : [ "obj-51", 0 ]
				}

			}
, 			{
				"patchline" : 				{
					"destination" : [ "obj-56", 1 ],
					"source" : [ "obj-52", 0 ]
				}

			}
, 			{
				"patchline" : 				{
					"destination" : [ "obj-64", 0 ],
					"source" : [ "obj-53", 0 ]
				}

			}
, 			{
				"patchline" : 				{
					"destination" : [ "obj-58", 1 ],
					"source" : [ "obj-54", 0 ]
				}

			}
, 			{
				"patchline" : 				{
					"destination" : [ "obj-57", 0 ],
					"order" : 1,
					"source" : [ "obj-56", 0 ]
				}

			}
, 			{
				"patchline" : 				{
					"destination" : [ "obj-58", 0 ],
					"order" : 0,
					"source" : [ "obj-56", 0 ]
				}

			}
, 			{
				"patchline" : 				{
					"destination" : [ "obj-59", 0 ],
					"source" : [ "obj-57", 0 ]
				}

			}
, 			{
				"patchline" : 				{
					"destination" : [ "obj-59", 1 ],
					"source" : [ "obj-58", 0 ]
				}

			}
, 			{
				"patchline" : 				{
					"destination" : [ "obj-60", 1 ],
					"source" : [ "obj-59", 0 ]
				}

			}
, 			{
				"patchline" : 				{
					"destination" : [ "obj-48", 0 ],
					"source" : [ "obj-60", 0 ]
				}

			}
, 			{
				"patchline" : 				{
					"destination" : [ "obj-68", 0 ],
					"source" : [ "obj-64", 0 ]
				}

			}
, 			{
				"patchline" : 				{
					"destination" : [ "obj-52", 0 ],
					"source" : [ "obj-68", 0 ]
				}

			}
, 			{
				"patchline" : 				{
					"destination" : [ "obj-76", 0 ],
					"source" : [ "obj-73", 0 ]
				}

			}
, 			{
				"patchline" : 				{
					"destination" : [ "obj-68", 1 ],
					"source" : [ "obj-76", 1 ]
				}

			}
, 			{
				"patchline" : 				{
					"destination" : [ "obj-68", 0 ],
					"source" : [ "obj-76", 0 ]
				}

			}
, 			{
				"patchline" : 				{
					"destination" : [ "obj-78", 1 ],
					"source" : [ "obj-77", 1 ]
				}

			}
, 			{
				"patchline" : 				{
					"destination" : [ "obj-78", 0 ],
					"source" : [ "obj-77", 0 ]
				}

			}
, 			{
				"patchline" : 				{
					"destination" : [ "obj-51", 0 ],
					"source" : [ "obj-78", 0 ]
				}

			}
, 			{
				"patchline" : 				{
					"destination" : [ "obj-78", 0 ],
					"source" : [ "obj-79", 0 ]
				}

			}
, 			{
				"patchline" : 				{
					"destination" : [ "obj-77", 0 ],
					"source" : [ "obj-80", 0 ]
				}

			}
, 			{
				"patchline" : 				{
					"destination" : [ "obj-83", 1 ],
					"source" : [ "obj-81", 1 ]
				}

			}
, 			{
				"patchline" : 				{
					"destination" : [ "obj-83", 0 ],
					"source" : [ "obj-81", 0 ]
				}

			}
, 			{
				"patchline" : 				{
					"destination" : [ "obj-81", 0 ],
					"source" : [ "obj-82", 0 ]
				}

			}
, 			{
				"patchline" : 				{
					"destination" : [ "obj-54", 0 ],
					"source" : [ "obj-83", 0 ]
				}

			}
, 			{
				"patchline" : 				{
					"destination" : [ "obj-83", 0 ],
					"source" : [ "obj-84", 0 ]
				}

			}
, 			{
				"patchline" : 				{
					"destination" : [ "obj-84", 0 ],
					"source" : [ "obj-85", 0 ]
				}

			}
 ],
		"parameters" : 		{
			"obj-129::obj-10" : [ "Damp Active", "Active", 0 ],
			"obj-129::obj-108::obj-90" : [ "number", "number", 0 ],
			"obj-129::obj-11" : [ "Modulation Active", "Active", 0 ],
			"obj-129::obj-14" : [ "Position Active", "Active", 0 ],
			"obj-129::obj-1::obj-1::obj-12::obj-70" : [ "hirt.val[6]", "hirt.val", 0 ],
			"obj-129::obj-1::obj-1::obj-44::obj-70" : [ "hirt.val[5]", "hirt.val", 0 ],
			"obj-129::obj-1::obj-1::obj-45::obj-70" : [ "hirt.val[4]", "hirt.val", 0 ],
			"obj-129::obj-1::obj-1::obj-46::obj-70" : [ "hirt.val[3]", "hirt.val", 0 ],
			"obj-129::obj-1::obj-1::obj-47::obj-70" : [ "hirt.val[2]", "hirt.val", 0 ],
			"obj-129::obj-1::obj-1::obj-48::obj-70" : [ "hirt.val[1]", "hirt.val", 0 ],
			"obj-129::obj-1::obj-1::obj-49" : [ "Length Mode", "Length Mode", 0 ],
			"obj-129::obj-1::obj-1::obj-53" : [ "Direct Mode", "Direct Mode", 0 ],
			"obj-129::obj-1::obj-1::obj-9" : [ "Reverse", "Reverse", 0 ],
			"obj-129::obj-1::obj-1::obj-97::obj-70" : [ "hirt.val", "hirt.val", 0 ],
			"obj-129::obj-1::obj-2::obj-100::obj-70" : [ "hirt.val[10]", "hirt.val", 0 ],
			"obj-129::obj-1::obj-2::obj-101::obj-70" : [ "hirt.val[7]", "hirt.val", 0 ],
			"obj-129::obj-1::obj-2::obj-36::obj-70" : [ "hirt.val[14]", "hirt.val", 0 ],
			"obj-129::obj-1::obj-2::obj-79::obj-70" : [ "hirt.val[11]", "hirt.val", 0 ],
			"obj-129::obj-1::obj-2::obj-81::obj-70" : [ "hirt.val[8]", "hirt.val", 0 ],
			"obj-129::obj-1::obj-2::obj-88::obj-70" : [ "hirt.val[15]", "hirt.val", 0 ],
			"obj-129::obj-1::obj-2::obj-92::obj-70" : [ "hirt.val[12]", "hirt.val", 0 ],
			"obj-129::obj-1::obj-2::obj-96::obj-70" : [ "hirt.val[9]", "hirt.val", 0 ],
			"obj-129::obj-1::obj-2::obj-99::obj-70" : [ "hirt.val[13]", "hirt.val", 0 ],
			"obj-129::obj-24::obj-1::obj-28::obj-70" : [ "hirt.val[17]", "hirt.val", 0 ],
			"obj-129::obj-24::obj-1::obj-29::obj-70" : [ "hirt.val[16]", "hirt.val", 0 ],
			"obj-129::obj-24::obj-2::obj-25" : [ "Widen", "Widen", 0 ],
			"obj-129::obj-24::obj-2::obj-29::obj-70" : [ "hirt.val[18]", "hirt.val", 0 ],
			"obj-129::obj-24::obj-2::obj-49" : [ "Type", "Type", 0 ],
			"obj-129::obj-24::obj-2::obj-8::obj-70" : [ "hirt.val[19]", "hirt.val", 0 ],
			"obj-129::obj-28" : [ "PATCH/PRESS", "PATCH/PRESS", 0 ],
			"obj-129::obj-31::obj-17::obj-70" : [ "hirt.val[28]", "hirt.val", 0 ],
			"obj-129::obj-31::obj-19::obj-70" : [ "hirt.val[27]", "hirt.val", 0 ],
			"obj-129::obj-31::obj-21" : [ "EQ Routing", "Active", 0 ],
			"obj-129::obj-31::obj-22::obj-70" : [ "hirt.val[26]", "hirt.val", 0 ],
			"obj-129::obj-31::obj-50::obj-70" : [ "hirt.val[25]", "hirt.val", 0 ],
			"obj-129::obj-31::obj-51::obj-70" : [ "hirt.val[24]", "hirt.val", 0 ],
			"obj-129::obj-31::obj-53::obj-70" : [ "hirt.val[23]", "hirt.val", 0 ],
			"obj-129::obj-31::obj-54::obj-70" : [ "hirt.val[22]", "hirt.val", 0 ],
			"obj-129::obj-31::obj-55::obj-70" : [ "hirt.val[21]", "hirt.val", 0 ],
			"obj-129::obj-31::obj-56::obj-70" : [ "hirt.val[20]", "hirt.val", 0 ],
			"obj-129::obj-36::obj-114::obj-35" : [ "Drop A", "live.drop", 3 ],
			"obj-129::obj-36::obj-114::obj-65" : [ "Drop B", "live.drop", 3 ],
			"obj-129::obj-36::obj-131::obj-10" : [ "Category Menu", "Category Menu", 0 ],
			"obj-129::obj-36::obj-131::obj-11" : [ "IR Menu", "IR Menu", 0 ],
			"obj-129::obj-36::obj-49" : [ "Select IR", "Select", 0 ],
			"obj-129::obj-36::obj-53" : [ "Mode IR", "Mode", 0 ],
			"obj-129::obj-3::obj-59::obj-70" : [ "hirt.val[33]", "hirt.val", 0 ],
			"obj-129::obj-3::obj-62::obj-70" : [ "hirt.val[29]", "hirt.val", 0 ],
			"obj-129::obj-3::obj-63::obj-70" : [ "hirt.val[30]", "hirt.val", 0 ],
			"obj-129::obj-3::obj-64::obj-70" : [ "hirt.val[31]", "hirt.val", 0 ],
			"obj-129::obj-3::obj-65::obj-70" : [ "hirt.val[32]", "hirt.val", 0 ],
			"obj-129::obj-5" : [ "Realtime Tabs", "Realtime", 0 ],
			"obj-129::obj-79" : [ "Offline Tabs", "Offline", 0 ],
			"obj-129::obj-8" : [ "Shape Active", "Active", 0 ],
			"obj-3" : [ "live.gain~", "live.gain~", 0 ],
			"parameterbanks" : 			{
				"0" : 				{
					"index" : 0,
					"name" : "",
					"parameters" : [ "-", "-", "-", "-", "-", "-", "-", "-" ]
				}

			}
,
			"parameter_overrides" : 			{
				"obj-129::obj-1::obj-1::obj-12::obj-70" : 				{
					"parameter_exponent" : 2.5,
					"parameter_initial" : 15000.0,
					"parameter_initial_enable" : 0,
					"parameter_invisible" : 1,
					"parameter_longname" : "hirt.val[6]",
					"parameter_modmode" : 0,
					"parameter_range" : [ 100.0, 30000.0 ],
					"parameter_type" : 0,
					"parameter_unitstyle" : 2
				}
,
				"obj-129::obj-1::obj-1::obj-44::obj-70" : 				{
					"parameter_exponent" : 2.0,
					"parameter_initial" : 0.0,
					"parameter_initial_enable" : 0,
					"parameter_invisible" : 1,
					"parameter_longname" : "hirt.val[5]",
					"parameter_modmode" : 0,
					"parameter_range" : [ 0.0, 1000.0 ],
					"parameter_type" : 0,
					"parameter_unitstyle" : 2
				}
,
				"obj-129::obj-1::obj-1::obj-45::obj-70" : 				{
					"parameter_exponent" : 2.0,
					"parameter_initial" : 0.0,
					"parameter_initial_enable" : 0,
					"parameter_invisible" : 1,
					"parameter_longname" : "hirt.val[4]",
					"parameter_modmode" : 0,
					"parameter_range" : [ 0.0, 1000.0 ],
					"parameter_type" : 0,
					"parameter_unitstyle" : 2
				}
,
				"obj-129::obj-1::obj-1::obj-46::obj-70" : 				{
					"parameter_exponent" : 1.0,
					"parameter_initial" : 100.0,
					"parameter_initial_enable" : 0,
					"parameter_invisible" : 1,
					"parameter_longname" : "hirt.val[3]",
					"parameter_modmode" : 0,
					"parameter_range" : [ 0.0, 100.0 ],
					"parameter_type" : 0,
					"parameter_unitstyle" : 5
				}
,
				"obj-129::obj-1::obj-1::obj-47::obj-70" : 				{
					"parameter_exponent" : 1.0,
					"parameter_initial" : 100.0,
					"parameter_initial_enable" : 0,
					"parameter_invisible" : 1,
					"parameter_longname" : "hirt.val[2]",
					"parameter_modmode" : 0,
					"parameter_range" : [ 0.0, 100.0 ],
					"parameter_type" : 0,
					"parameter_unitstyle" : 5
				}
,
				"obj-129::obj-1::obj-1::obj-48::obj-70" : 				{
					"parameter_exponent" : 1.58,
					"parameter_initial" : 100.0,
					"parameter_initial_enable" : 0,
					"parameter_invisible" : 1,
					"parameter_longname" : "hirt.val[1]",
					"parameter_modmode" : 0,
					"parameter_range" : [ 50.0, 200.0 ],
					"parameter_type" : 0,
					"parameter_unitstyle" : 5
				}
,
				"obj-129::obj-1::obj-1::obj-97::obj-70" : 				{
					"parameter_exponent" : 1.01,
					"parameter_initial" : 100.0,
					"parameter_initial_enable" : 0,
					"parameter_invisible" : 1,
					"parameter_modmode" : 0,
					"parameter_range" : [ 1.0, 200.0 ],
					"parameter_type" : 0,
					"parameter_unitstyle" : 5
				}
,
				"obj-129::obj-1::obj-2::obj-100::obj-70" : 				{
					"parameter_exponent" : 4.0,
					"parameter_initial" : 1000.0,
					"parameter_initial_enable" : 0,
					"parameter_invisible" : 1,
					"parameter_longname" : "hirt.val[10]",
					"parameter_modmode" : 0,
					"parameter_range" : [ 30.0, 18000.0 ],
					"parameter_type" : 0,
					"parameter_unitstyle" : 3
				}
,
				"obj-129::obj-1::obj-2::obj-101::obj-70" : 				{
					"parameter_exponent" : 4.0,
					"parameter_initial" : 8000.0,
					"parameter_initial_enable" : 0,
					"parameter_invisible" : 1,
					"parameter_longname" : "hirt.val[7]",
					"parameter_modmode" : 0,
					"parameter_range" : [ 30.0, 18000.0 ],
					"parameter_type" : 0,
					"parameter_unitstyle" : 3
				}
,
				"obj-129::obj-1::obj-2::obj-36::obj-70" : 				{
					"parameter_exponent" : 1.189901,
					"parameter_initial" : 100.0,
					"parameter_initial_enable" : 0,
					"parameter_invisible" : 1,
					"parameter_longname" : "hirt.val[14]",
					"parameter_modmode" : 0,
					"parameter_range" : [ 20.0, 200.0 ],
					"parameter_type" : 0,
					"parameter_unitstyle" : 5
				}
,
				"obj-129::obj-1::obj-2::obj-79::obj-70" : 				{
					"parameter_exponent" : 1.189901,
					"parameter_initial" : 100.0,
					"parameter_initial_enable" : 0,
					"parameter_invisible" : 1,
					"parameter_longname" : "hirt.val[11]",
					"parameter_modmode" : 0,
					"parameter_range" : [ 20.0, 200.0 ],
					"parameter_type" : 0,
					"parameter_unitstyle" : 5
				}
,
				"obj-129::obj-1::obj-2::obj-81::obj-70" : 				{
					"parameter_exponent" : 1.189901,
					"parameter_initial" : 100.0,
					"parameter_initial_enable" : 0,
					"parameter_invisible" : 1,
					"parameter_longname" : "hirt.val[8]",
					"parameter_modmode" : 0,
					"parameter_range" : [ 20.0, 200.0 ],
					"parameter_type" : 0,
					"parameter_unitstyle" : 5
				}
,
				"obj-129::obj-1::obj-2::obj-88::obj-70" : 				{
					"parameter_exponent" : 1.0,
					"parameter_initial" : 1.0,
					"parameter_initial_enable" : 0,
					"parameter_invisible" : 1,
					"parameter_longname" : "hirt.val[15]",
					"parameter_modmode" : 0,
					"parameter_range" : [ 0.05, 2.0 ],
					"parameter_type" : 0,
					"parameter_unitstyle" : 1
				}
,
				"obj-129::obj-1::obj-2::obj-92::obj-70" : 				{
					"parameter_exponent" : 1.0,
					"parameter_initial" : 0.707107,
					"parameter_initial_enable" : 0,
					"parameter_invisible" : 1,
					"parameter_longname" : "hirt.val[12]",
					"parameter_modmode" : 0,
					"parameter_range" : [ 0.05, 2.0 ],
					"parameter_type" : 0,
					"parameter_unitstyle" : 1
				}
,
				"obj-129::obj-1::obj-2::obj-96::obj-70" : 				{
					"parameter_exponent" : 1.0,
					"parameter_initial" : 1.0,
					"parameter_initial_enable" : 0,
					"parameter_invisible" : 1,
					"parameter_longname" : "hirt.val[9]",
					"parameter_modmode" : 0,
					"parameter_range" : [ 0.05, 2.0 ],
					"parameter_type" : 0,
					"parameter_unitstyle" : 1
				}
,
				"obj-129::obj-1::obj-2::obj-99::obj-70" : 				{
					"parameter_exponent" : 4.0,
					"parameter_initial" : 125.0,
					"parameter_initial_enable" : 0,
					"parameter_invisible" : 1,
					"parameter_longname" : "hirt.val[13]",
					"parameter_modmode" : 0,
					"parameter_range" : [ 30.0, 18000.0 ],
					"parameter_type" : 0,
					"parameter_unitstyle" : 3
				}
,
				"obj-129::obj-24::obj-1::obj-28::obj-70" : 				{
					"parameter_exponent" : 1.0,
					"parameter_initial" : 0.0,
					"parameter_initial_enable" : 0,
					"parameter_invisible" : 0,
					"parameter_longname" : "hirt.val[17]",
					"parameter_modmode" : 0,
					"parameter_range" : [ -100.0, 100.0 ],
					"parameter_type" : 0,
					"parameter_unitstyle" : 5
				}
,
				"obj-129::obj-24::obj-1::obj-29::obj-70" : 				{
					"parameter_exponent" : 1.0,
					"parameter_initial" : 0.0,
					"parameter_initial_enable" : 0,
					"parameter_invisible" : 0,
					"parameter_longname" : "hirt.val[16]",
					"parameter_modmode" : 0,
					"parameter_range" : [ -50.0, 50.0 ],
					"parameter_type" : 0,
					"parameter_unitstyle" : 6
				}
,
				"obj-129::obj-24::obj-2::obj-29::obj-70" : 				{
					"parameter_exponent" : 1.0,
					"parameter_initial" : 1.0,
					"parameter_initial_enable" : 0,
					"parameter_invisible" : 0,
					"parameter_longname" : "hirt.val[18]",
					"parameter_modmode" : 0,
					"parameter_range" : [ 0.05, 2.0 ],
					"parameter_type" : 0,
					"parameter_unitstyle" : 3
				}
,
				"obj-129::obj-24::obj-2::obj-8::obj-70" : 				{
					"parameter_exponent" : 1.0,
					"parameter_initial" : 50.0,
					"parameter_initial_enable" : 0,
					"parameter_invisible" : 0,
					"parameter_longname" : "hirt.val[19]",
					"parameter_modmode" : 0,
					"parameter_range" : [ 0.0, 100.0 ],
					"parameter_type" : 0,
					"parameter_unitstyle" : 5
				}
,
				"obj-129::obj-31::obj-17::obj-70" : 				{
					"parameter_exponent" : 3.0,
					"parameter_initial" : 0.5,
					"parameter_initial_enable" : 0,
					"parameter_invisible" : 0,
					"parameter_longname" : "hirt.val[28]",
					"parameter_modmode" : 0,
					"parameter_range" : [ 0.05, 18.0 ],
					"parameter_type" : 0,
					"parameter_unitstyle" : 10
				}
,
				"obj-129::obj-31::obj-19::obj-70" : 				{
					"parameter_exponent" : 1.0,
					"parameter_initial" : 0.0,
					"parameter_initial_enable" : 0,
					"parameter_invisible" : 0,
					"parameter_longname" : "hirt.val[27]",
					"parameter_modmode" : 0,
					"parameter_range" : [ -18.0, 18.0 ],
					"parameter_type" : 0,
					"parameter_units" : " ",
					"parameter_unitstyle" : 4
				}
,
				"obj-129::obj-31::obj-22::obj-70" : 				{
					"parameter_exponent" : 4.0,
					"parameter_initial" : 125.0,
					"parameter_initial_enable" : 0,
					"parameter_invisible" : 0,
					"parameter_longname" : "hirt.val[26]",
					"parameter_modmode" : 0,
					"parameter_range" : [ 10.0, 18000.0 ],
					"parameter_type" : 0,
					"parameter_unitstyle" : 3
				}
,
				"obj-129::obj-31::obj-50::obj-70" : 				{
					"parameter_exponent" : 3.0,
					"parameter_initial" : 0.707107,
					"parameter_initial_enable" : 0,
					"parameter_invisible" : 0,
					"parameter_longname" : "hirt.val[25]",
					"parameter_modmode" : 0,
					"parameter_range" : [ 0.05, 18.0 ],
					"parameter_type" : 0,
					"parameter_unitstyle" : 10
				}
,
				"obj-129::obj-31::obj-51::obj-70" : 				{
					"parameter_exponent" : 1.0,
					"parameter_initial" : 0.0,
					"parameter_initial_enable" : 0,
					"parameter_invisible" : 0,
					"parameter_longname" : "hirt.val[24]",
					"parameter_modmode" : 0,
					"parameter_range" : [ -18.0, 18.0 ],
					"parameter_type" : 0,
					"parameter_units" : " ",
					"parameter_unitstyle" : 4
				}
,
				"obj-129::obj-31::obj-53::obj-70" : 				{
					"parameter_exponent" : 4.0,
					"parameter_initial" : 1000.0,
					"parameter_initial_enable" : 0,
					"parameter_invisible" : 0,
					"parameter_longname" : "hirt.val[23]",
					"parameter_modmode" : 0,
					"parameter_range" : [ 10.0, 18000.0 ],
					"parameter_type" : 0,
					"parameter_unitstyle" : 3
				}
,
				"obj-129::obj-31::obj-54::obj-70" : 				{
					"parameter_exponent" : 3.0,
					"parameter_initial" : 0.5,
					"parameter_initial_enable" : 0,
					"parameter_invisible" : 0,
					"parameter_longname" : "hirt.val[22]",
					"parameter_modmode" : 0,
					"parameter_range" : [ 0.05, 18.0 ],
					"parameter_type" : 0,
					"parameter_unitstyle" : 10
				}
,
				"obj-129::obj-31::obj-55::obj-70" : 				{
					"parameter_exponent" : 1.0,
					"parameter_initial" : 0.0,
					"parameter_initial_enable" : 0,
					"parameter_invisible" : 0,
					"parameter_longname" : "hirt.val[21]",
					"parameter_modmode" : 0,
					"parameter_range" : [ -18.0, 18.0 ],
					"parameter_type" : 0,
					"parameter_units" : " ",
					"parameter_unitstyle" : 4
				}
,
				"obj-129::obj-31::obj-56::obj-70" : 				{
					"parameter_exponent" : 4.0,
					"parameter_initial" : 8000.0,
					"parameter_initial_enable" : 0,
					"parameter_invisible" : 0,
					"parameter_longname" : "hirt.val[20]",
					"parameter_modmode" : 0,
					"parameter_range" : [ 10.0, 18000.0 ],
					"parameter_type" : 0,
					"parameter_unitstyle" : 3
				}
,
				"obj-129::obj-3::obj-59::obj-70" : 				{
					"parameter_exponent" : 2.0,
					"parameter_initial" : 0.0,
					"parameter_initial_enable" : 0,
					"parameter_invisible" : 0,
					"parameter_longname" : "hirt.val[33]",
					"parameter_modmode" : 0,
					"parameter_range" : [ 0.0, 200.0 ],
					"parameter_type" : 0,
					"parameter_unitstyle" : 2
				}
,
				"obj-129::obj-3::obj-62::obj-70" : 				{
					"parameter_exponent" : 1.0,
					"parameter_initial" : 0.0,
					"parameter_initial_enable" : 0,
					"parameter_invisible" : 0,
					"parameter_longname" : "hirt.val[29]",
					"parameter_modmode" : 0,
					"parameter_range" : [ 0.0, 100.0 ],
					"parameter_type" : 0,
					"parameter_unitstyle" : 5
				}
,
				"obj-129::obj-3::obj-63::obj-70" : 				{
					"parameter_exponent" : 1.0,
					"parameter_initial" : 100.0,
					"parameter_initial_enable" : 0,
					"parameter_invisible" : 0,
					"parameter_longname" : "hirt.val[30]",
					"parameter_modmode" : 0,
					"parameter_range" : [ 0.0, 100.0 ],
					"parameter_type" : 0,
					"parameter_unitstyle" : 5
				}
,
				"obj-129::obj-3::obj-64::obj-70" : 				{
					"parameter_exponent" : 1.0,
					"parameter_initial" : 0.0,
					"parameter_initial_enable" : 0,
					"parameter_invisible" : 0,
					"parameter_longname" : "hirt.val[31]",
					"parameter_modmode" : 0,
					"parameter_range" : [ -20.0, 20.0 ],
					"parameter_type" : 0,
					"parameter_units" : " ",
					"parameter_unitstyle" : 4
				}
,
				"obj-129::obj-3::obj-65::obj-70" : 				{
					"parameter_exponent" : 1.0,
					"parameter_initial" : 50.0,
					"parameter_initial_enable" : 0,
					"parameter_invisible" : 0,
					"parameter_longname" : "hirt.val[32]",
					"parameter_modmode" : 0,
					"parameter_range" : [ 0.0, 100.0 ],
					"parameter_type" : 0,
					"parameter_unitstyle" : 5
				}

			}
,
			"inherited_shortname" : 1
		}
,
		"dependency_cache" : [ 			{
				"name" : "HIRT_HISSTools_Logo.png",
				"bootpath" : "~/Documents/Max 8/Packages/HISSTools Impulse Response Toolbox (HIRT)/misc/HIRT_image",
				"type" : "PNG",
				"implicit" : 1
			}
, 			{
				"name" : "bufresample~.mxe64",
				"type" : "mx64"
			}
, 			{
				"name" : "bufreverse~.mxe64",
				"type" : "mx64"
			}
, 			{
				"name" : "hirt.buffer.filter.maxpat",
				"bootpath" : "~/Documents/Max 8/Packages/HISSTools Impulse Response Toolbox (HIRT)/patchers/HIRT_support",
				"type" : "JSON",
				"implicit" : 1
			}
, 			{
				"name" : "hirt.convolutionreverb~.maxpat",
				"bootpath" : "~/Documents/Max 8/Packages/HISSTools Impulse Response Toolbox (HIRT)/patchers/HIRT_reverb",
				"type" : "JSON",
				"implicit" : 1
			}
, 			{
				"name" : "hirt.convolvestereo~.maxpat",
				"bootpath" : "~/Documents/Max 8/Packages/HISSTools Impulse Response Toolbox (HIRT)/patchers/HIRT_support",
				"type" : "JSON",
				"implicit" : 1
			}
, 			{
				"name" : "hirt.convrvrb.realtime~.maxpat",
				"bootpath" : "~/Documents/Max 8/Packages/HISSTools Impulse Response Toolbox (HIRT)/patchers/HIRT_reverb/HIRT_reverb_support",
				"type" : "JSON",
				"implicit" : 1
			}
, 			{
				"name" : "hirt.damping.cascade.maxpat",
				"bootpath" : "~/Documents/Max 8/Packages/HISSTools Impulse Response Toolbox (HIRT)/patchers/HIRT_support",
				"type" : "JSON",
				"implicit" : 1
			}
, 			{
				"name" : "hirt.dial.jspainter.js",
				"bootpath" : "~/Documents/Max 8/Packages/HISSTools Impulse Response Toolbox (HIRT)/javascript",
				"type" : "TEXT",
				"implicit" : 1
			}
, 			{
				"name" : "hirt.dial.linear.only.maxpat",
				"bootpath" : "~/Documents/Max 8/Packages/HISSTools Impulse Response Toolbox (HIRT)/patchers/HIRT_support",
				"type" : "JSON",
				"implicit" : 1
			}
, 			{
				"name" : "hirt.dial.maxpat",
				"bootpath" : "~/Documents/Max 8/Packages/HISSTools Impulse Response Toolbox (HIRT)/patchers/HIRT_support",
				"type" : "JSON",
				"implicit" : 1
			}
, 			{
				"name" : "hirt.size.resample.maxpat",
				"bootpath" : "~/Documents/Max 8/Packages/HISSTools Impulse Response Toolbox (HIRT)/patchers/HIRT_support",
				"type" : "JSON",
				"implicit" : 1
			}
, 			{
				"name" : "hirt.svfcoeff.maxpat",
				"bootpath" : "~/Documents/Max 8/Packages/HISSTools Impulse Response Toolbox (HIRT)/patchers/HIRT_support",
				"type" : "JSON",
				"implicit" : 1
			}
, 			{
				"name" : "hirt_base_name.maxpat",
				"bootpath" : "~/Documents/Max 8/Packages/HISSTools Impulse Response Toolbox (HIRT)/patchers/HIRT_support",
				"type" : "JSON",
				"implicit" : 1
			}
, 			{
				"name" : "hirt_conv_rvrb_zoom.txt",
				"bootpath" : "~/Documents/Max 8/Packages/HISSTools Impulse Response Toolbox (HIRT)/patchers/HIRT_reverb/HIRT_reverb_support",
				"type" : "TEXT",
				"implicit" : 1
			}
, 			{
				"name" : "hirt_convolution_rt_library.genexpr",
				"bootpath" : "~/Documents/Max 8/Packages/HISSTools Impulse Response Toolbox (HIRT)/code",
				"type" : "GenX",
				"implicit" : 1
			}
, 			{
				"name" : "hirt_convrvrb_clientlist_alias.txt",
				"bootpath" : "~/Documents/Max 8/Packages/HISSTools Impulse Response Toolbox (HIRT)/patchers/HIRT_reverb/HIRT_reverb_support",
				"type" : "TEXT",
				"implicit" : 1
			}
, 			{
				"name" : "hirt_convrvrb_rt_part1.gendsp",
				"bootpath" : "~/Documents/Max 8/Packages/HISSTools Impulse Response Toolbox (HIRT)/code",
				"type" : "gDSP",
				"implicit" : 1
			}
, 			{
				"name" : "hirt_convrvrb_rt_part3.gendsp",
				"bootpath" : "~/Documents/Max 8/Packages/HISSTools Impulse Response Toolbox (HIRT)/code",
				"type" : "gDSP",
				"implicit" : 1
			}
, 			{
				"name" : "hirt_convrvrb_rt_part5.gendsp",
				"bootpath" : "~/Documents/Max 8/Packages/HISSTools Impulse Response Toolbox (HIRT)/code",
				"type" : "gDSP",
				"implicit" : 1
			}
, 			{
				"name" : "hirt_cr_info_view.maxpat",
				"bootpath" : "~/Documents/Max 8/Packages/HISSTools Impulse Response Toolbox (HIRT)/patchers/HIRT_reverb/HIRT_reverb_support",
				"type" : "JSON",
				"implicit" : 1
			}
, 			{
				"name" : "hirt_data_colls.maxpat",
				"bootpath" : "~/Documents/Max 8/Packages/HISSTools Impulse Response Toolbox (HIRT)/patchers/HIRT_support",
				"type" : "JSON",
				"implicit" : 1
			}
, 			{
				"name" : "hirt_eq.maxpat",
				"bootpath" : "~/Documents/Max 8/Packages/HISSTools Impulse Response Toolbox (HIRT)/patchers/HIRT_reverb/HIRT_reverb_support",
				"type" : "JSON",
				"implicit" : 1
			}
, 			{
				"name" : "hirt_eq_library.genexpr",
				"bootpath" : "~/Documents/Max 8/Packages/HISSTools Impulse Response Toolbox (HIRT)/code",
				"type" : "GenX",
				"implicit" : 1
			}
, 			{
				"name" : "hirt_file_check.maxpat",
				"bootpath" : "~/Documents/Max 8/Packages/HISSTools Impulse Response Toolbox (HIRT)/patchers/HIRT_support",
				"type" : "JSON",
				"implicit" : 1
			}
, 			{
				"name" : "hirt_file_ir_display.maxpat",
				"bootpath" : "~/Documents/Max 8/Packages/HISSTools Impulse Response Toolbox (HIRT)/patchers/HIRT_reverb/HIRT_reverb_support",
				"type" : "JSON",
				"implicit" : 1
			}
, 			{
				"name" : "hirt_file_loading.maxpat",
				"bootpath" : "~/Documents/Max 8/Packages/HISSTools Impulse Response Toolbox (HIRT)/patchers/HIRT_support",
				"type" : "JSON",
				"implicit" : 1
			}
, 			{
				"name" : "hirt_file_picker.maxpat",
				"bootpath" : "~/Documents/Max 8/Packages/HISSTools Impulse Response Toolbox (HIRT)/patchers/HIRT_support",
				"type" : "JSON",
				"implicit" : 1
			}
, 			{
				"name" : "hirt_file_set.maxpat",
				"bootpath" : "~/Documents/Max 8/Packages/HISSTools Impulse Response Toolbox (HIRT)/patchers/HIRT_support",
				"type" : "JSON",
				"implicit" : 1
			}
, 			{
				"name" : "hirt_filter_type.maxpat",
				"bootpath" : "~/Documents/Max 8/Packages/HISSTools Impulse Response Toolbox (HIRT)/patchers/HIRT_support",
				"type" : "JSON",
				"implicit" : 1
			}
, 			{
				"name" : "hirt_folder.maxpat",
				"bootpath" : "~/Documents/Max 8/Packages/HISSTools Impulse Response Toolbox (HIRT)/patchers/HIRT_support",
				"type" : "JSON",
				"implicit" : 1
			}
, 			{
				"name" : "hirt_gain_and_display.maxpat",
				"bootpath" : "~/Documents/Max 8/Packages/HISSTools Impulse Response Toolbox (HIRT)/patchers/HIRT_reverb/HIRT_reverb_support",
				"type" : "JSON",
				"implicit" : 1
			}
, 			{
				"name" : "hirt_gain_params.maxpat",
				"bootpath" : "~/Documents/Max 8/Packages/HISSTools Impulse Response Toolbox (HIRT)/patchers/HIRT_reverb/HIRT_reverb_support",
				"type" : "JSON",
				"implicit" : 1
			}
, 			{
				"name" : "hirt_interface_damp.js",
				"bootpath" : "~/Documents/Max 8/Packages/HISSTools Impulse Response Toolbox (HIRT)/jsui",
				"type" : "TEXT",
				"implicit" : 1
			}
, 			{
				"name" : "hirt_interface_eq.js",
				"bootpath" : "~/Documents/Max 8/Packages/HISSTools Impulse Response Toolbox (HIRT)/jsui",
				"type" : "TEXT",
				"implicit" : 1
			}
, 			{
				"name" : "hirt_interface_mod.js",
				"bootpath" : "~/Documents/Max 8/Packages/HISSTools Impulse Response Toolbox (HIRT)/jsui",
				"type" : "TEXT",
				"implicit" : 1
			}
, 			{
				"name" : "hirt_interface_pos.js",
				"bootpath" : "~/Documents/Max 8/Packages/HISSTools Impulse Response Toolbox (HIRT)/jsui",
				"type" : "TEXT",
				"implicit" : 1
			}
, 			{
				"name" : "hirt_ir.maxpat",
				"bootpath" : "~/Documents/Max 8/Packages/HISSTools Impulse Response Toolbox (HIRT)/patchers/HIRT_reverb/HIRT_reverb_support",
				"type" : "JSON",
				"implicit" : 1
			}
, 			{
				"name" : "hirt_loading_scheme.maxpat",
				"bootpath" : "~/Documents/Max 8/Packages/HISSTools Impulse Response Toolbox (HIRT)/patchers/HIRT_support",
				"type" : "JSON",
				"implicit" : 1
			}
, 			{
				"name" : "hirt_nan_fix.maxpat",
				"bootpath" : "~/Documents/Max 8/Packages/HISSTools Impulse Response Toolbox (HIRT)/patchers/HIRT_support",
				"type" : "JSON",
				"implicit" : 1
			}
, 			{
				"name" : "hirt_output.maxpat",
				"bootpath" : "~/Documents/Max 8/Packages/HISSTools Impulse Response Toolbox (HIRT)/patchers/HIRT_reverb/HIRT_reverb_support",
				"type" : "JSON",
				"implicit" : 1
			}
, 			{
				"name" : "hirt_partition_copy_buffers.maxpat",
				"bootpath" : "~/Documents/Max 8/Packages/HISSTools Impulse Response Toolbox (HIRT)/patchers/HIRT_reverb/HIRT_reverb_support",
				"type" : "JSON",
				"implicit" : 1
			}
, 			{
				"name" : "hirt_partition_early.maxpat",
				"bootpath" : "~/Documents/Max 8/Packages/HISSTools Impulse Response Toolbox (HIRT)/patchers/HIRT_reverb/HIRT_reverb_support",
				"type" : "JSON",
				"implicit" : 1
			}
, 			{
				"name" : "hirt_partition_fix_length.maxpat",
				"bootpath" : "~/Documents/Max 8/Packages/HISSTools Impulse Response Toolbox (HIRT)/patchers/HIRT_reverb/HIRT_reverb_support",
				"type" : "JSON",
				"implicit" : 1
			}
, 			{
				"name" : "hirt_partition_late.maxpat",
				"bootpath" : "~/Documents/Max 8/Packages/HISSTools Impulse Response Toolbox (HIRT)/patchers/HIRT_reverb/HIRT_reverb_support",
				"type" : "JSON",
				"implicit" : 1
			}
, 			{
				"name" : "hirt_size_resample_feed.maxpat",
				"bootpath" : "~/Documents/Max 8/Packages/HISSTools Impulse Response Toolbox (HIRT)/patchers/HIRT_reverb/HIRT_reverb_support",
				"type" : "JSON",
				"implicit" : 1
			}
, 			{
				"name" : "hirt_tab_damp.maxpat",
				"bootpath" : "~/Documents/Max 8/Packages/HISSTools Impulse Response Toolbox (HIRT)/patchers/HIRT_reverb/HIRT_reverb_support",
				"type" : "JSON",
				"implicit" : 1
			}
, 			{
				"name" : "hirt_tab_modulation.maxpat",
				"bootpath" : "~/Documents/Max 8/Packages/HISSTools Impulse Response Toolbox (HIRT)/patchers/HIRT_reverb/HIRT_reverb_support",
				"type" : "JSON",
				"implicit" : 1
			}
, 			{
				"name" : "hirt_tab_position.maxpat",
				"bootpath" : "~/Documents/Max 8/Packages/HISSTools Impulse Response Toolbox (HIRT)/patchers/HIRT_reverb/HIRT_reverb_support",
				"type" : "JSON",
				"implicit" : 1
			}
, 			{
				"name" : "hirt_tab_shape.maxpat",
				"bootpath" : "~/Documents/Max 8/Packages/HISSTools Impulse Response Toolbox (HIRT)/patchers/HIRT_reverb/HIRT_reverb_support",
				"type" : "JSON",
				"implicit" : 1
			}
, 			{
				"name" : "hirt_tabs_offline.maxpat",
				"bootpath" : "~/Documents/Max 8/Packages/HISSTools Impulse Response Toolbox (HIRT)/patchers/HIRT_reverb/HIRT_reverb_support",
				"type" : "JSON",
				"implicit" : 1
			}
, 			{
				"name" : "hirt_tabs_realtime.maxpat",
				"bootpath" : "~/Documents/Max 8/Packages/HISSTools Impulse Response Toolbox (HIRT)/patchers/HIRT_reverb/HIRT_reverb_support",
				"type" : "JSON",
				"implicit" : 1
			}
, 			{
				"name" : "hirt_zoom_factor.js",
				"bootpath" : "~/Documents/Max 8/Packages/HISSTools Impulse Response Toolbox (HIRT)/javascript",
				"type" : "TEXT",
				"implicit" : 1
			}
, 			{
				"name" : "iraverage~.mxe64",
				"type" : "mx64"
			}
, 			{
				"name" : "ircropfade~.mxe64",
				"type" : "mx64"
			}
, 			{
				"name" : "irdisplay~.mxe64",
				"type" : "mx64"
			}
, 			{
				"name" : "irmix~.mxe64",
				"type" : "mx64"
			}
, 			{
				"name" : "irstats~.mxe64",
				"type" : "mx64"
			}
, 			{
				"name" : "irtrimnorm~.mxe64",
				"type" : "mx64"
			}
, 			{
				"name" : "morphfilter~.mxe64",
				"type" : "mx64"
			}
, 			{
				"name" : "multiconvolve~.mxe64",
				"type" : "mx64"
			}
, 			{
				"name" : "spectrumdraw~.mxe64",
				"type" : "mx64"
			}
 ],
		"autosave" : 0
	}

}
